:SAMPLES-PER-SECOND 30
:FULLY-SPECIFIED
:DEGREES
318
root  -47.4883 33.4248 26.3774 174.31 48.3719 -174.105
RightUpLeg  -6.12546 -30.3802 -6.16695
RightLeg  33.1293 -4.34802 -2.4635
RightFoot  -1.09416 -0.00315273 0.293957
RightToes  -22.7747 -0.0974607 -0.198749
Spine  2.16841 2.46001 -4.5647
Spine1  4.10849 5.11695 -8.35686
HEad  -64.7308 -15.8229 0.10866
LeftShoulder1  -1.94126e-019 -3.10601e-018 -2.51263e-017
LeftArm  6.26014 3.33232 -77.454
LeftForeArm  34.4416 -67.6889 -24.5659
LeftHand  -0.399147 -0.417216 8.07695
RightShoulder  -4.96962e-017 0 -2.36833e-017
RightArm  -19.1102 -9.41109 74.3566
RightForeArm  59.6577 9.73992 1.52449
RightHand  -0.288152 -1.40933 -8.27617
LeftUpLeg  -12.2733 6.66719 13.9284
LeftLeg  57.0374 15.6691 19.9443
LeftFoot  -6.68729 -0.18381 -2.98376
LeftToes  -9.51537 2.32378e-006 -5.43956e-008
319
root  -48.6625 33.1547 26.7304 -177.064 50.1237 -168.877
RightUpLeg  -13.5255 -28.9444 0.435193
RightLeg  32.1462 -4.66087 -2.53378
RightFoot  1.16086 0.00424334 0.0938081
RightToes  -24.1075 -0.10552 -0.208999
Spine  0.936789 2.15779 -3.17287
Spine1  1.76974 4.47259 -5.65943
HEad  -66.0768 -13.7449 -0.882893
LeftShoulder1  -1.94126e-019 -3.10601e-018 -2.51263e-017
LeftArm  6.53815 4.017 -78.503
LeftForeArm  37.9887 -69.7456 -27.496
LeftHand  -0.4076 -0.423467 8.23819
RightShoulder  -4.96962e-017 0 -2.36833e-017
RightArm  -16.1181 -12.6026 72.8025
RightForeArm  54.5186 13.9333 1.79127
RightHand  -0.308289 -0.645084 -7.51635
LeftUpLeg  -13.8524 6.84212 18.0401
LeftLeg  58.1752 12.8955 17.3585
LeftFoot  -4.41528 -0.0661469 -1.55419
LeftToes  -11.986 2.32378e-006 -5.43956e-008
320
root  -50.0054 32.8266 26.7805 -173.122 51.8603 -166.935
RightUpLeg  -19.0225 -28.5689 2.48685
RightLeg  33.0389 -3.49301 -1.97559
RightFoot  2.90292 0.00998045 -0.0094722
RightToes  -27.0731 -0.124294 -0.231117
Spine  0.606897 1.85964 -2.38972
Spine1  1.16541 3.88532 -4.13155
HEad  -67.4112 -11.4081 -1.59416
LeftShoulder1  -1.94126e-019 -3.10601e-018 -2.51263e-017
LeftArm  6.15597 3.84214 -79.0701
LeftForeArm  39.78 -70.3363 -28.3378
LeftHand  -0.449771 -0.694136 8.70112
RightShoulder  -4.96962e-017 0 -2.36833e-017
RightArm  -14.5787 -14.1283 71.5302
RightForeArm  50.6083 17.2648 1.77025
RightHand  -0.329285 -0.265765 -7.4754
LeftUpLeg  -11.1579 5.72564 18.7038
LeftLeg  54.8449 11.8025 14.2447
LeftFoot  1.28696 -0.00518586 0.623326
LeftToes  -44.5975 2.32378e-006 -5.43956e-008
321
root  -51.4736 32.3912 26.6657 -171.953 53.6516 -167.229
RightUpLeg  -24.128 -28.7369 2.33813
RightLeg  35.2252 -1.95362 -1.21499
RightFoot  4.21527 0.00931238 0.0101767
RightToes  -30.3082 -0.146049 -0.254102
Spine  0.690253 1.363 -1.87589
Spine1  1.35512 2.87887 -3.11043
HEad  -68.5504 -9.08005 -2.52794
LeftShoulder1  -1.94126e-019 -3.10601e-018 -2.51263e-017
LeftArm  5.18831 3.47567 -79.0829
LeftForeArm  39.7869 -69.9838 -27.6254
LeftHand  -0.492594 -1.0215 9.05949
RightShoulder  -4.96962e-017 0 -2.36833e-017
RightArm  -14.8152 -14.0701 70.3792
RightForeArm  47.9079 20.0013 1.95301
RightHand  -0.298438 -0.709064 -7.36655
LeftUpLeg  -7.49477 4.6404 16.938
LeftLeg  47.0709 11.6605 10.8083
LeftFoot  -8.65891 -0.184914 -2.28055
LeftToes  -50.1825 2.32378e-006 -5.43956e-008
322
root  -52.9481 31.9732 26.6878 -171.472 55.1958 -168.311
RightUpLeg  -29.0875 -28.3559 2.13647
RightLeg  36.8929 -1.95288 -1.29668
RightFoot  4.71373 0.0132002 -0.0196429
RightToes  -33.1027 -0.16586 -0.272942
Spine  0.930869 0.992711 -1.6417
Spine1  1.82616 2.11886 -2.64987
HEad  -69.6952 -7.71951 -3.13907
LeftShoulder1  -1.94126e-019 -3.10601e-018 -2.51263e-017
LeftArm  4.96351 2.0991 -78.2001
LeftForeArm  37.9756 -68.0895 -24.6524
LeftHand  -0.538032 -1.45344 9.29143
RightShoulder  -4.96962e-017 0 -2.36833e-017
RightArm  -16.9064 -13.5374 70.3604
RightForeArm  47.0672 21.3311 2.19557
RightHand  -0.292944 -1.3787 -8.35632
LeftUpLeg  -9.00965 6.12408 14.4437
LeftLeg  45.8989 11.5819 10.3158
LeftFoot  -15.5194 -0.58016 -4.09406
LeftToes  -45.4243 2.32378e-006 -5.43956e-008
323
root  -54.2136 31.9245 26.7183 -172.48 57.5433 -170.686
RightUpLeg  -31.9086 -27.4498 1.3258
RightLeg  35.9659 -2.82792 -1.80235
RightFoot  3.06768 0.0139731 -0.00507884
RightToes  -30.8965 -0.150143 -0.258148
Spine  1.46213 1.44893 -2.1385
Spine1  2.83328 3.02272 -3.62875
HEad  -71.2092 -8.45519 -3.18956
LeftShoulder1  -1.94126e-019 -3.10601e-018 -2.51263e-017
LeftArm  5.96259 -0.513491 -76.4397
LeftForeArm  35.1886 -63.5151 -19.3756
LeftHand  -0.574608 -1.93759 9.29152
RightShoulder  -4.96962e-017 0 -2.36833e-017
RightArm  -22.3701 -13.5788 73.1162
RightForeArm  48.3207 19.765 1.83725
RightHand  -0.366429 -1.66353 -11.2691
LeftUpLeg  -13.5488 11.2084 11.7247
LeftLeg  49.9372 10.498 10.7694
LeftFoot  -13.7756 -0.444178 -3.51426
LeftToes  -43.6738 2.32378e-006 -5.43956e-008
